<mxfile host="app.diagrams.net" modified="2024-03-13T11:39:56.458Z" agent="Mozilla/5.0 (Windows NT 10.0; Win64; x64) AppleWebKit/537.36 (KHTML, like Gecko) Chrome/122.0.0.0 Safari/537.36" version="24.0.5" etag="DRk6cW7u60uLTPzaLAC7" type="github">
  <diagram name="PÃ¡gina-1" id="kL4BQV-Yhn3wEOm5nbyx">
    <mxGraphModel>
      <root>
        <mxCell id="0" />
        <mxCell id="1" parent="0" />
      </root>
    </mxGraphModel>
  </diagram>
</mxfile>
